<svg width="68" height="63" fill="none" xmlns="http://www.w3.org/2000/svg"><path fill-rule="evenodd" clip-rule="evenodd" d="M34 0C15.215 0 0 14.453 0 32.297c0 14.291 9.732 26.362 23.247 30.641 1.7.283 2.338-.686 2.338-1.534 0-.767-.043-3.31-.043-6.015C17 56.883 14.79 53.41 14.11 51.594c-.383-.928-2.04-3.795-3.485-4.562-1.19-.605-2.89-2.1-.043-2.14 2.678-.04 4.59 2.342 5.228 3.31 3.06 4.886 7.947 3.513 9.902 2.665.298-2.099 1.19-3.512 2.168-4.32-7.565-.807-15.47-3.592-15.47-15.946 0-3.512 1.317-6.419 3.485-8.68-.34-.807-1.53-4.117.34-8.558 0 0 2.848-.848 9.35 3.31 2.72-.726 5.61-1.09 8.5-1.09 2.89 0 5.78.364 8.5 1.09 6.502-4.198 9.35-3.31 9.35-3.31 1.87 4.44.68 7.751.34 8.558 2.168 2.261 3.485 5.128 3.485 8.68 0 12.394-7.947 15.14-15.512 15.947 1.232 1.009 2.294 2.947 2.294 5.975 0 4.32-.042 7.791-.042 8.881 0 .848.638 1.857 2.337 1.534 6.75-2.164 12.615-6.285 16.77-11.782 4.155-5.496 6.391-12.092 6.393-18.86C68 14.454 52.785 0 34 0Z" fill="#fff"/></svg>