<svg width="63" height="63" fill="none" xmlns="http://www.w3.org/2000/svg"><path d="M18.27 0h26.46C54.81 0 63 8.19 63 18.27v26.46A18.27 18.27 0 0 1 44.73 63H18.27C8.19 63 0 54.81 0 44.73V18.27A18.27 18.27 0 0 1 18.27 0Zm-.63 6.3A11.34 11.34 0 0 0 6.3 17.64v27.72c0 6.269 5.071 11.34 11.34 11.34h27.72A11.34 11.34 0 0 0 56.7 45.36V17.64c0-6.269-5.072-11.34-11.34-11.34H17.64Zm30.398 4.725a3.937 3.937 0 1 1 0 7.874 3.937 3.937 0 0 1 0-7.874ZM31.5 15.75a15.75 15.75 0 1 1 0 31.5 15.75 15.75 0 0 1 0-31.5Zm0 6.3a9.45 9.45 0 1 0 0 18.9 9.45 9.45 0 0 0 0-18.9Z" fill="#fff"/></svg>